<?xml version="1.0" encoding="UTF-8" standalone="no"?>
<svg xmlns="http://www.w3.org/2000/svg" width="400" height="400" viewBox="0 0 400 400" role="img" aria-labelledby="title">
  <title id="title">ScormEditor</title>

  <defs>
    <linearGradient id="brandGradient" x1="0" y1="0" x2="1" y2="1">
      <stop offset="0" stop-color="#168BFF"/>
      <stop offset="0.58" stop-color="#1767E8"/>
      <stop offset="1" stop-color="#6947E8"/>
    </linearGradient>
  </defs>

  <!-- Símbolo -->
  <rect x="40" y="40" width="320" height="320" rx="78" fill="url(#brandGradient)"/>

  <!-- Documento posterior -->
  <rect x="105" y="90" width="176" height="201" rx="25" fill="none" stroke="#FFFFFF" stroke-width="13" opacity="0.42"/>

  <!-- Documento principal -->
  <path d="M91 116c0-14.36 11.64-26 26-26h126l51 51v142c0 14.36-11.64 26-26 26H117c-14.36 0-26-11.64-26-26V116Z" fill="#FFFFFF"/>
  <path d="M243 90v35c0 14.36 11.64 26 26 26h25" fill="#DDEBFF"/>

  <!-- Contenido del curso -->
  <rect x="127" y="158" width="102" height="13" rx="6.5" fill="#1A67E8" opacity="0.93"/>
  <rect x="127" y="188" width="128" height="11" rx="5.5" fill="#AABFE0"/>
  <rect x="127" y="214" width="95" height="11" rx="5.5" fill="#AABFE0"/>
  <circle cx="150" cy="263" r="23" fill="#E7F2FF"/>
  <path d="m145 251 17 12-17 12Z" fill="#168BFF"/>

  <!-- Lápiz -->
  <g transform="rotate(-42 269 256)">
    <rect x="251" y="195" width="35" height="118" rx="12" fill="#15C6D7"/>
    <rect x="251" y="195" width="35" height="26" rx="10" fill="#9AF0F4"/>
    <path d="m251 313 17.5 31 17.5-31Z" fill="#FFCF66"/>
    <path d="m263 334 5.5 10 5.5-10Z" fill="#173254"/>
  </g>
</svg>
